<?xml version="1.0" encoding="UTF-8" standalone="no"?>
<!DOCTYPE svg PUBLIC "-//W3C//DTD SVG 1.1//EN"
 "http://www.w3.org/Graphics/SVG/1.1/DTD/svg11.dtd">
<!-- Generated by graphviz version 2.38.0 (20140413.2041)
 -->
<!-- Title: G Pages: 1 -->
<svg width="4013pt" height="124pt"
 viewBox="0.00 0.00 4012.80 123.98" xmlns="http://www.w3.org/2000/svg" xmlns:xlink="http://www.w3.org/1999/xlink">
<g id="graph0" class="graph" transform="scale(1 1) rotate(0) translate(7.992 115.992)">
<title>G</title>
<polygon fill="#000000" stroke="none" points="-7.992,7.992 -7.992,-115.992 4004.81,-115.992 4004.81,7.992 -7.992,7.992"/>
<!-- dist/fun&#45;apply&#45;0.1.0 -->
<g id="node1" class="node"><title>dist/fun&#45;apply&#45;0.1.0</title>
<ellipse fill="none" stroke="#c6c5fe" cx="1774.84" cy="-90" rx="89.0842" ry="18"/>
<text text-anchor="middle" x="1774.84" y="-86.3" font-family="Arial" font-size="14.00" fill="#c6c5fe">dist/fun&#45;apply&#45;0.1.0</text>
</g>
<!-- node_modules/deep&#45;equal/index -->
<g id="node2" class="node"><title>node_modules/deep&#45;equal/index</title>
<ellipse fill="none" stroke="#cfffac" cx="2094.84" cy="-18" rx="146.474" ry="18"/>
<text text-anchor="middle" x="2094.84" y="-14.3" font-family="Arial" font-size="14.00" fill="#cfffac">node_modules/deep&#45;equal/index</text>
</g>
<!-- dist/fun&#45;apply&#45;0.1.0&#45;&gt;node_modules/deep&#45;equal/index -->
<g id="edge1" class="edge"><title>dist/fun&#45;apply&#45;0.1.0&#45;&gt;node_modules/deep&#45;equal/index</title>
<path fill="none" stroke="#757575" d="M1829.98,-75.7512C1880.16,-64.4217 1954.84,-48.0544 2012.15,-35.8053"/>
<polygon fill="#757575" stroke="#757575" points="2013.23,-39.1546 2022.28,-33.6455 2011.77,-32.3086 2013.23,-39.1546"/>
</g>
<!-- dist/fun&#45;apply&#45;0.1.0&#45;&gt;node_modules/deep&#45;equal/index -->
<g id="edge2" class="edge"><title>dist/fun&#45;apply&#45;0.1.0&#45;&gt;node_modules/deep&#45;equal/index</title>
<path fill="none" stroke="#757575" d="M1835.84,-76.8069C1888.58,-65.6474 1964.87,-49.0088 2021.02,-36.4438"/>
<polygon fill="#757575" stroke="#757575" points="2021.92,-39.8298 2030.91,-34.2267 2020.39,-32.9994 2021.92,-39.8298"/>
</g>
<!-- node_modules/fun&#45;assert/src/index -->
<g id="node3" class="node"><title>node_modules/fun&#45;assert/src/index</title>
<ellipse fill="none" stroke="#cfffac" cx="470.837" cy="-18" rx="155.173" ry="18"/>
<text text-anchor="middle" x="470.837" y="-14.3" font-family="Arial" font-size="14.00" fill="#cfffac">node_modules/fun&#45;assert/src/index</text>
</g>
<!-- dist/fun&#45;apply&#45;0.1.0&#45;&gt;node_modules/fun&#45;assert/src/index -->
<g id="edge3" class="edge"><title>dist/fun&#45;apply&#45;0.1.0&#45;&gt;node_modules/fun&#45;assert/src/index</title>
<path fill="none" stroke="#757575" d="M1687.07,-86.7564C1494.52,-81.3169 1020.99,-65.6418 625.837,-36 612.4,-34.992 598.359,-33.7799 584.447,-32.4729"/>
<polygon fill="#757575" stroke="#757575" points="584.638,-28.9752 574.35,-31.5059 583.971,-35.9434 584.638,-28.9752"/>
</g>
<!-- dist/fun&#45;apply&#45;0.1.0&#45;&gt;node_modules/fun&#45;assert/src/index -->
<g id="edge4" class="edge"><title>dist/fun&#45;apply&#45;0.1.0&#45;&gt;node_modules/fun&#45;assert/src/index</title>
<path fill="none" stroke="#757575" d="M1687.29,-86.4831C1497.15,-80.8038 1032.57,-65.1601 643.837,-36 627.253,-34.756 609.75,-33.2011 592.494,-31.5404"/>
<polygon fill="#757575" stroke="#757575" points="592.663,-28.0404 582.371,-30.552 591.983,-35.0073 592.663,-28.0404"/>
</g>
<!-- node_modules/fun&#45;boolean/src/index -->
<g id="node4" class="node"><title>node_modules/fun&#45;boolean/src/index</title>
<ellipse fill="none" stroke="#cfffac" cx="2421.84" cy="-18" rx="163.271" ry="18"/>
<text text-anchor="middle" x="2421.84" y="-14.3" font-family="Arial" font-size="14.00" fill="#cfffac">node_modules/fun&#45;boolean/src/index</text>
</g>
<!-- dist/fun&#45;apply&#45;0.1.0&#45;&gt;node_modules/fun&#45;boolean/src/index -->
<g id="edge5" class="edge"><title>dist/fun&#45;apply&#45;0.1.0&#45;&gt;node_modules/fun&#45;boolean/src/index</title>
<path fill="none" stroke="#757575" d="M1851.28,-80.7298C1961.92,-68.7592 2167.84,-46.4798 2299.69,-32.2152"/>
<polygon fill="#757575" stroke="#757575" points="2300.28,-35.6724 2309.84,-31.1169 2299.52,-28.713 2300.28,-35.6724"/>
</g>
<!-- node_modules/fun&#45;compose/src/index -->
<g id="node5" class="node"><title>node_modules/fun&#45;compose/src/index</title>
<ellipse fill="none" stroke="#cfffac" cx="2771.84" cy="-18" rx="168.97" ry="18"/>
<text text-anchor="middle" x="2771.84" y="-14.3" font-family="Arial" font-size="14.00" fill="#cfffac">node_modules/fun&#45;compose/src/index</text>
</g>
<!-- dist/fun&#45;apply&#45;0.1.0&#45;&gt;node_modules/fun&#45;compose/src/index -->
<g id="edge6" class="edge"><title>dist/fun&#45;apply&#45;0.1.0&#45;&gt;node_modules/fun&#45;compose/src/index</title>
<path fill="none" stroke="#757575" d="M1859.49,-84.3777C2008.19,-76.0677 2325.93,-57.4566 2593.84,-36 2609.72,-34.7275 2626.4,-33.2816 2642.91,-31.7831"/>
<polygon fill="#757575" stroke="#757575" points="2643.52,-35.2421 2653.15,-30.8443 2642.88,-28.2713 2643.52,-35.2421"/>
</g>
<!-- node_modules/fun&#45;curry/src/index -->
<g id="node6" class="node"><title>node_modules/fun&#45;curry/src/index</title>
<ellipse fill="none" stroke="#cfffac" cx="3108.84" cy="-18" rx="150.273" ry="18"/>
<text text-anchor="middle" x="3108.84" y="-14.3" font-family="Arial" font-size="14.00" fill="#cfffac">node_modules/fun&#45;curry/src/index</text>
</g>
<!-- dist/fun&#45;apply&#45;0.1.0&#45;&gt;node_modules/fun&#45;curry/src/index -->
<g id="edge7" class="edge"><title>dist/fun&#45;apply&#45;0.1.0&#45;&gt;node_modules/fun&#45;curry/src/index</title>
<path fill="none" stroke="#757575" d="M1862.65,-86.8832C2058.17,-81.7659 2544.14,-66.809 2949.84,-36 2964.34,-34.8983 2979.57,-33.5353 2994.62,-32.0641"/>
<polygon fill="#757575" stroke="#757575" points="2995.4,-35.5042 3005,-31.0301 2994.71,-28.5387 2995.4,-35.5042"/>
</g>
<!-- node_modules/fun&#45;predicate/src/index -->
<g id="node7" class="node"><title>node_modules/fun&#45;predicate/src/index</title>
<ellipse fill="none" stroke="#cfffac" cx="3445.84" cy="-18" rx="168.97" ry="18"/>
<text text-anchor="middle" x="3445.84" y="-14.3" font-family="Arial" font-size="14.00" fill="#cfffac">node_modules/fun&#45;predicate/src/index</text>
</g>
<!-- dist/fun&#45;apply&#45;0.1.0&#45;&gt;node_modules/fun&#45;predicate/src/index -->
<g id="edge8" class="edge"><title>dist/fun&#45;apply&#45;0.1.0&#45;&gt;node_modules/fun&#45;predicate/src/index</title>
<path fill="none" stroke="#757575" d="M1863.31,-87.5541C2092.72,-83.5794 2724.13,-70.4044 3249.84,-36 3269.67,-34.7021 3290.72,-32.9901 3311.41,-31.1523"/>
<polygon fill="#757575" stroke="#757575" points="3311.89,-34.6236 3321.53,-30.2413 3311.26,-27.6517 3311.89,-34.6236"/>
</g>
<!-- dist/fun&#45;apply&#45;0.1.0&#45;&gt;node_modules/fun&#45;predicate/src/index -->
<g id="edge9" class="edge"><title>dist/fun&#45;apply&#45;0.1.0&#45;&gt;node_modules/fun&#45;predicate/src/index</title>
<path fill="none" stroke="#757575" d="M1863.28,-87.7036C2094.38,-83.9164 2735.33,-70.849 3267.84,-36 3284.54,-34.9069 3302.1,-33.5202 3319.42,-32.012"/>
<polygon fill="#757575" stroke="#757575" points="3319.93,-35.4807 3329.58,-31.1112 3319.31,-28.508 3319.93,-35.4807"/>
</g>
<!-- dist/fun&#45;apply&#45;0.1.0&#45;&gt;node_modules/fun&#45;predicate/src/index -->
<g id="edge10" class="edge"><title>dist/fun&#45;apply&#45;0.1.0&#45;&gt;node_modules/fun&#45;predicate/src/index</title>
<path fill="none" stroke="#757575" d="M1863.34,-87.8376C2096.79,-84.2307 2746.86,-71.2724 3285.84,-36 3299.55,-35.1028 3313.84,-34.0077 3328,-32.81"/>
<polygon fill="#757575" stroke="#757575" points="3328.62,-36.2693 3338.29,-31.921 3328.02,-29.2954 3328.62,-36.2693"/>
</g>
<!-- node_modules/guarded/src/index -->
<g id="node8" class="node"><title>node_modules/guarded/src/index</title>
<ellipse fill="none" stroke="#cfffac" cx="148.837" cy="-18" rx="148.674" ry="18"/>
<text text-anchor="middle" x="148.837" y="-14.3" font-family="Arial" font-size="14.00" fill="#cfffac">node_modules/guarded/src/index</text>
</g>
<!-- dist/fun&#45;apply&#45;0.1.0&#45;&gt;node_modules/guarded/src/index -->
<g id="edge11" class="edge"><title>dist/fun&#45;apply&#45;0.1.0&#45;&gt;node_modules/guarded/src/index</title>
<path fill="none" stroke="#757575" d="M1686.19,-87.9943C1457.49,-84.9235 828.938,-73.4649 306.837,-36 292.051,-34.939 276.512,-33.5745 261.187,-32.0807"/>
<polygon fill="#757575" stroke="#757575" points="261.455,-28.5901 251.157,-31.0822 260.761,-35.5557 261.455,-28.5901"/>
</g>
<!-- node_modules/json&#45;stringify&#45;safe/stringify -->
<g id="node9" class="node"><title>node_modules/json&#45;stringify&#45;safe/stringify</title>
<ellipse fill="none" stroke="#cfffac" cx="3814.84" cy="-18" rx="181.968" ry="18"/>
<text text-anchor="middle" x="3814.84" y="-14.3" font-family="Arial" font-size="14.00" fill="#cfffac">node_modules/json&#45;stringify&#45;safe/stringify</text>
</g>
<!-- dist/fun&#45;apply&#45;0.1.0&#45;&gt;node_modules/json&#45;stringify&#45;safe/stringify -->
<g id="edge12" class="edge"><title>dist/fun&#45;apply&#45;0.1.0&#45;&gt;node_modules/json&#45;stringify&#45;safe/stringify</title>
<path fill="none" stroke="#757575" d="M1863.71,-88.3101C2129.65,-85.8738 2942.01,-75.5498 3614.84,-36 3634.69,-34.8332 3655.67,-33.2856 3676.29,-31.5982"/>
<polygon fill="#757575" stroke="#757575" points="3676.71,-35.0761 3686.38,-30.7597 3676.13,-28.1001 3676.71,-35.0761"/>
</g>
<!-- dist/fun&#45;apply&#45;0.1.0&#45;&gt;node_modules/json&#45;stringify&#45;safe/stringify -->
<g id="edge13" class="edge"><title>dist/fun&#45;apply&#45;0.1.0&#45;&gt;node_modules/json&#45;stringify&#45;safe/stringify</title>
<path fill="none" stroke="#757575" d="M1863.58,-88.3817C2131.18,-86.0798 2953.2,-75.9502 3632.84,-36 3649.57,-35.0161 3667.12,-33.7614 3684.44,-32.3804"/>
<polygon fill="#757575" stroke="#757575" points="3684.92,-35.8531 3694.6,-31.5538 3684.35,-28.8761 3684.92,-35.8531"/>
</g>
<!-- node_modules/prelude&#45;ls/lib/index -->
<g id="node10" class="node"><title>node_modules/prelude&#45;ls/lib/index</title>
<ellipse fill="none" stroke="#cfffac" cx="795.837" cy="-18" rx="152.173" ry="18"/>
<text text-anchor="middle" x="795.837" y="-14.3" font-family="Arial" font-size="14.00" fill="#cfffac">node_modules/prelude&#45;ls/lib/index</text>
</g>
<!-- dist/fun&#45;apply&#45;0.1.0&#45;&gt;node_modules/prelude&#45;ls/lib/index -->
<g id="edge14" class="edge"><title>dist/fun&#45;apply&#45;0.1.0&#45;&gt;node_modules/prelude&#45;ls/lib/index</title>
<path fill="none" stroke="#757575" d="M1689.78,-84.599C1541.16,-76.6602 1224.63,-58.6431 957.837,-36 943.413,-34.7758 928.281,-33.3616 913.3,-31.8821"/>
<polygon fill="#757575" stroke="#757575" points="913.261,-28.361 902.963,-30.849 912.565,-35.3263 913.261,-28.361"/>
</g>
<!-- node_modules/ramda/index -->
<g id="node11" class="node"><title>node_modules/ramda/index</title>
<ellipse fill="none" stroke="#cfffac" cx="1091.84" cy="-18" rx="125.378" ry="18"/>
<text text-anchor="middle" x="1091.84" y="-14.3" font-family="Arial" font-size="14.00" fill="#cfffac">node_modules/ramda/index</text>
</g>
<!-- dist/fun&#45;apply&#45;0.1.0&#45;&gt;node_modules/ramda/index -->
<g id="edge15" class="edge"><title>dist/fun&#45;apply&#45;0.1.0&#45;&gt;node_modules/ramda/index</title>
<path fill="none" stroke="#757575" d="M1694.75,-82.0255C1587.77,-72.5362 1392.37,-54.5984 1225.84,-36 1214.66,-34.7519 1202.97,-33.3749 1191.35,-31.9611"/>
<polygon fill="#757575" stroke="#757575" points="1191.52,-28.4561 1181.17,-30.7115 1190.67,-35.404 1191.52,-28.4561"/>
</g>
<!-- node_modules/stringify&#45;anything/src/index -->
<g id="node12" class="node"><title>node_modules/stringify&#45;anything/src/index</title>
<ellipse fill="none" stroke="#cfffac" cx="1417.84" cy="-18" rx="182.768" ry="18"/>
<text text-anchor="middle" x="1417.84" y="-14.3" font-family="Arial" font-size="14.00" fill="#cfffac">node_modules/stringify&#45;anything/src/index</text>
</g>
<!-- dist/fun&#45;apply&#45;0.1.0&#45;&gt;node_modules/stringify&#45;anything/src/index -->
<g id="edge16" class="edge"><title>dist/fun&#45;apply&#45;0.1.0&#45;&gt;node_modules/stringify&#45;anything/src/index</title>
<path fill="none" stroke="#757575" d="M1706.02,-78.4445C1644.26,-67.4776 1554.72,-50.1153 1491.58,-36.9802"/>
<polygon fill="#757575" stroke="#757575" points="1492.19,-33.5314 1481.69,-34.91 1490.76,-40.3831 1492.19,-33.5314"/>
</g>
<!-- dist/fun&#45;apply&#45;0.1.0&#45;&gt;node_modules/stringify&#45;anything/src/index -->
<g id="edge17" class="edge"><title>dist/fun&#45;apply&#45;0.1.0&#45;&gt;node_modules/stringify&#45;anything/src/index</title>
<path fill="none" stroke="#757575" d="M1710.72,-77.4409C1652.14,-66.3092 1565.25,-49.3226 1501.29,-36.5269"/>
<polygon fill="#757575" stroke="#757575" points="1501.72,-33.044 1491.22,-34.5108 1500.34,-39.9076 1501.72,-33.044"/>
</g>
<!-- dist/fun&#45;apply&#45;0.1.0&#45;&gt;node_modules/stringify&#45;anything/src/index -->
<g id="edge18" class="edge"><title>dist/fun&#45;apply&#45;0.1.0&#45;&gt;node_modules/stringify&#45;anything/src/index</title>
<path fill="none" stroke="#757575" d="M1715.93,-76.4046C1660.05,-65.1163 1575.3,-48.4641 1510.41,-35.9982"/>
<polygon fill="#757575" stroke="#757575" points="1511.06,-32.5591 1500.58,-34.1128 1509.74,-39.4338 1511.06,-32.5591"/>
</g>
<!-- dist/fun&#45;apply&#45;0.1.0&#45;&gt;node_modules/stringify&#45;anything/src/index -->
<g id="edge19" class="edge"><title>dist/fun&#45;apply&#45;0.1.0&#45;&gt;node_modules/stringify&#45;anything/src/index</title>
<path fill="none" stroke="#757575" d="M1721.99,-75.4203C1668.48,-63.9995 1585.37,-47.6344 1519.3,-35.4679"/>
<polygon fill="#757575" stroke="#757575" points="1519.74,-31.9891 1509.27,-33.6287 1518.47,-38.8744 1519.74,-31.9891"/>
</g>
<!-- node_modules/type&#45;check/lib/index -->
<g id="node13" class="node"><title>node_modules/type&#45;check/lib/index</title>
<ellipse fill="none" stroke="#cfffac" cx="1774.84" cy="-18" rx="155.972" ry="18"/>
<text text-anchor="middle" x="1774.84" y="-14.3" font-family="Arial" font-size="14.00" fill="#cfffac">node_modules/type&#45;check/lib/index</text>
</g>
<!-- dist/fun&#45;apply&#45;0.1.0&#45;&gt;node_modules/type&#45;check/lib/index -->
<g id="edge20" class="edge"><title>dist/fun&#45;apply&#45;0.1.0&#45;&gt;node_modules/type&#45;check/lib/index</title>
<path fill="none" stroke="#757575" d="M1763.08,-72.055C1761.44,-64.3456 1760.96,-55.0269 1761.63,-46.3642"/>
<polygon fill="#757575" stroke="#757575" points="1765.12,-46.6584 1763.01,-36.2753 1758.18,-45.7065 1765.12,-46.6584"/>
</g>
<!-- dist/fun&#45;apply&#45;0.1.0&#45;&gt;node_modules/type&#45;check/lib/index -->
<g id="edge21" class="edge"><title>dist/fun&#45;apply&#45;0.1.0&#45;&gt;node_modules/type&#45;check/lib/index</title>
<path fill="none" stroke="#757575" d="M1774.84,-71.6966C1774.84,-63.9827 1774.84,-54.7125 1774.84,-46.1124"/>
<polygon fill="#757575" stroke="#757575" points="1778.34,-46.1043 1774.84,-36.1043 1771.34,-46.1044 1778.34,-46.1043"/>
</g>
<!-- dist/fun&#45;apply&#45;0.1.0&#45;&gt;node_modules/type&#45;check/lib/index -->
<g id="edge22" class="edge"><title>dist/fun&#45;apply&#45;0.1.0&#45;&gt;node_modules/type&#45;check/lib/index</title>
<path fill="none" stroke="#757575" d="M1786.59,-72.055C1788.23,-64.3456 1788.71,-55.0269 1788.05,-46.3642"/>
<polygon fill="#757575" stroke="#757575" points="1791.49,-45.7065 1786.66,-36.2753 1784.55,-46.6584 1791.49,-45.7065"/>
</g>
<!-- src/index -->
<g id="node14" class="node"><title>src/index</title>
<ellipse fill="none" stroke="#c6c5fe" cx="309.837" cy="-90" rx="48.1917" ry="18"/>
<text text-anchor="middle" x="309.837" y="-86.3" font-family="Arial" font-size="14.00" fill="#c6c5fe">src/index</text>
</g>
<!-- src/index&#45;&gt;node_modules/fun&#45;assert/src/index -->
<g id="edge23" class="edge"><title>src/index&#45;&gt;node_modules/fun&#45;assert/src/index</title>
<path fill="none" stroke="#757575" d="M340.12,-75.8335C363.587,-65.6305 396.533,-51.306 423.478,-39.5908"/>
<polygon fill="#757575" stroke="#757575" points="424.958,-42.7639 432.733,-35.5668 422.167,-36.3444 424.958,-42.7639"/>
</g>
<!-- src/index&#45;&gt;node_modules/guarded/src/index -->
<g id="edge24" class="edge"><title>src/index&#45;&gt;node_modules/guarded/src/index</title>
<path fill="none" stroke="#757575" d="M279.554,-75.8335C256.006,-65.5951 222.912,-51.2064 195.915,-39.4689"/>
<polygon fill="#757575" stroke="#757575" points="197.212,-36.2164 186.646,-35.4388 194.421,-42.6359 197.212,-36.2164"/>
</g>
</g>
</svg>
